<svg xmlns="http://www.w3.org/2000/svg" viewBox="0 0 24 24" fill="none" stroke="#39ff14" stroke-width="2" stroke-linecap="round" stroke-linejoin="round">
  <path d="M22 12.5c0-1.5-1-2.5-2.5-2.5-.2 0-.4 0-.6.1C18.5 8.2 16.5 7 14 7c-3.5 0-6.4 2.5-7 5.7-.3 0-.7-.1-1-.1-2.2 0-4 1.8-4 4 0 2.2 1.8 4 4 4h15c1.7 0 3-1.3 3-3 0-1.5-1.1-2.8-2.5-3.1z"/>
  <rect x="5" y="11" width="2" height="2"/>
  <rect x="8" y="11" width="2" height="2"/>
  <rect x="11" y="11" width="2" height="2"/>
  <rect x="8" y="8" width="2" height="2"/>
  <rect x="11" y="8" width="2" height="2"/>
  <rect x="14" y="11" width="2" height="2"/>
  <rect x="14" y="8" width="2" height="2"/>
  <rect x="11" y="5" width="2" height="2"/>
</svg>
